<svg xmlns="http://www.w3.org/2000/svg" viewBox="0 0 1920 292"><defs><style>.cls-1{fill:#3c4d46;}</style></defs><g id="Layer_2" data-name="Layer 2"><g id="Layer_2-2" data-name="Layer 2"><polygon class="cls-1" points="1920 10 1818 10 1818 158 1775 158 1775 84 1709 84 1709 213 1619 213 1619 147 1550 147 1550 198 1463 198 1463 180 1426 180 1426 253 1377 253 1377 224 1268 224 1268 271 1118 271 1118 201 893 201 893 241 835 241 835 157 779 157 779 224 733 224 733 111 661 111 661 261 461 261 461 180 422 180 422 215 386 215 386 65 309 65 309 184 211 184 211 0 116 0 116 135 58 135 58 32 0 32 0 292 1920 292 1920 10"/></g></g></svg>