<svg xmlns="http://www.w3.org/2000/svg" viewBox="0 0 1920 327"><defs><style>.cls-1{fill:#2a332f;}</style></defs><g id="Layer_2" data-name="Layer 2"><g id="Layer_1-2" data-name="Layer 1"><polygon class="cls-1" points="0 0 84 0 84 136 139 136 139 17 236 17 236 136 265 136 265 68 338 68 338 155 403 155 403 63 435 63 435 181 543 181 543 126 574 126 574 218 617 218 617 100 694 100 694 210 779 209.96 779 121 859 121 859 231 960 231 960 201 1028 201 1028 264 1061 264 1061 169 1132 169 1132 264 1208 264 1208 196 1265 196 1265 227 1322 227 1322 132 1389 132 1389 207 1489 207 1489 156 1536 156 1536 89 1591 89 1591 132 1660 132 1660 35 1714 35 1714 90 1774 90 1774 6 1866 6 1866 92 1920 92 1920 327 0 327 0 0"/></g></g></svg>